TRAIL_071_grf.mot
nRows=86
nColumns=19

name TRAIL_071_grf.mot
datacolumns 19
datarows 86
range 0.33750003576278687 0.40833336114883423
endheader
time	grf_right_vx	grf_right_vy	grf_right_vz	grf_right_px	grf_right_py	grf_right_pz	grf_left_vx	grf_left_vy	grf_left_vz	grf_left_px	grf_left_py	grf_left_pz	grf_right_tx	grf_right_ty	grf_right_tz	grf_left_tx	grf_left_ty	grf_left_tz
0.33750003576278687	0.0	0.0	0.0	0.0	0.0	0.0	0.0	0.0	0.0	141.287841796875	363.3824768066406	-30.153430938720703	0.8807587075751433	0.0	-0.08391984370043637	0.0	0.7007531753761085	0.0
0.3383333683013916	0.0	0.0	0.0	0.0	0.0	0.0	0.0	0.0	0.0	135.2990264892578	346.4340515136719	-29.252670288085938	0.8806372018174768	0.0	-0.08552008483609741	0.0	0.771075424560284	0.0
0.33916670083999634	0.0	0.0	0.0	0.0	0.0	0.0	0.0	0.0	0.0	129.40634155273438	329.0987243652344	-28.82847023010254	0.8805005662474277	0.0	-0.0876326657567088	0.0	0.9228918149703129	0.0
0.3400000333786011	0.0	0.0	0.0	0.0	0.0	0.0	0.0	0.0	0.0	124.38280487060547	312.79583740234375	-28.725624084472656	0.8806482513715208	0.0	-0.08916533720950004	0.0	1.1425430228638054	0.0
0.3408333659172058	0.0	0.0	0.0	0.0	0.0	0.0	0.0	0.0	0.0	119.40007781982422	296.4145812988281	-28.370601654052734	0.8802406111655152	0.0	-0.09159877966770713	0.0	1.2336715868168482	0.0
0.34166669845581055	0.0	0.0	0.0	0.0	0.0	0.0	0.0	0.0	0.0	114.27508544921875	281.1751708984375	-27.31613540649414	0.8795630709615703	0.0	-0.09361020288947364	0.0	1.339022868326659	0.0
0.3425000309944153	0.0	0.0	0.0	0.0	0.0	0.0	0.0	0.0	0.0	109.09590148925781	267.5547180175781	-26.22454833984375	0.8791058285844513	0.0	-0.09529574162701981	0.0	1.3140309491310642	0.0
0.34333336353302	0.0	0.0	0.0	0.0	0.0	0.0	0.0	0.0	0.0	103.88264465332031	255.30320739746094	-25.501211166381836	0.8791494653122838	0.0	-0.09716785610630341	0.0	1.2348420877903898	0.0
0.34416669607162476	0.0	0.0	0.0	0.0	0.0	0.0	0.0	0.0	0.0	98.62691497802734	243.5559539794922	-25.14986228942871	0.8794963390867676	0.0	-0.09967610629179124	0.0	1.2636705314431	0.0
0.3450000286102295	0.0	0.0	0.0	0.0	0.0	0.0	0.0	0.0	0.0	93.33125305175781	230.9459228515625	-24.627925872802734	0.8791523988292906	0.0	-0.10258625077210803	0.0	1.5190696815467193	0.0
0.34583336114883423	0.0	0.0	0.0	0.0	0.0	0.0	0.0	0.0	0.0	88.94039916992188	219.8838653564453	-22.9870548248291	0.878515539196757	0.0	-0.10441957209080432	0.0	1.5375583170762777	0.0
0.34666669368743896	0.0	0.0	0.0	0.0	0.0	0.0	0.0	0.0	0.0	85.09829711914062	209.05642700195312	-21.99254608154297	0.8786779495482098	0.0	-0.10719020304468052	0.0	1.5224577354077666	0.0
0.3475000262260437	0.0	0.0	0.0	0.0	0.0	0.0	0.0	0.0	0.0	81.02998352050781	198.61593627929688	-21.55844497680664	0.8784166303504728	0.0	-0.11038028100432717	0.0	1.549404712070635	0.0
0.34833335876464844	0.0	0.0	0.0	0.0	0.0	0.0	0.0	0.0	0.0	76.7911148071289	188.6605987548828	-21.07314109802246	0.8774863596713136	0.0	-0.11326660691764223	0.0	1.6322101711508623	0.0
0.3491666913032532	0.0	0.0	0.0	0.0	0.0	0.0	0.0	0.0	0.0	72.68863677978516	179.0043182373047	-20.164451599121094	0.8763785163265239	0.0	-0.11572601558771822	0.0	1.7049401224509482	0.0
0.3500000238418579	0.0	0.0	0.0	0.0	0.0	0.0	0.0	0.0	0.0	68.70152282714844	168.94638061523438	-19.46470832824707	0.875958039937557	0.0	-0.11933545343296037	0.0	1.5984581874698172	0.0
0.35083335638046265	0.0	0.0	0.0	0.0	0.0	0.0	0.0	0.0	0.0	64.3175048828125	159.18678283691406	-19.82872772216797	0.872774189817803	0.0	-0.12185527231211546	0.0	1.5737091321794299	0.0
0.3516666889190674	0.0	0.0	0.0	0.0	0.0	0.0	0.0	0.0	0.0	60.22906494140625	150.09152221679688	-20.18607521057129	0.8708799955083624	0.0	-0.12541147020140953	0.0	1.8788319288987694	0.0
0.3525000214576721	0.0	0.0	0.0	0.0	0.0	0.0	0.0	0.0	0.0	56.79913330078125	141.0426025390625	-19.423107147216797	0.8687803224276665	0.0	-0.1302427401789319	0.0	2.1093056701641606	0.0
0.35333335399627686	0.0	0.0	0.0	0.0	0.0	0.0	0.0	0.0	0.0	53.921783447265625	132.3440399169922	-18.069063186645508	0.8656821385055373	0.0	-0.13553622726561143	0.0	2.1759000014751226	0.0
0.3541666865348816	0.0	0.0	0.0	0.0	0.0	0.0	0.0	0.0	0.0	51.29113006591797	123.97511291503906	-17.210681915283203	0.861969450322827	0.0	-0.14072176137592274	0.0	2.226241419670213	0.0
0.35500001907348633	0.0	0.0	0.0	0.0	0.0	0.0	0.0	0.0	0.0	48.67020034790039	114.34354400634766	-17.40681266784668	0.8596754398246325	0.0	-0.1476912022271999	0.0	2.5894294458983653	0.0
0.35583335161209106	0.0	0.0	0.0	0.0	0.0	0.0	0.0	0.0	0.0	46.44649124145508	106.8414077758789	-17.052202224731445	0.8570034491409162	0.0	-0.1511190611966604	0.0	2.6719253875021125	0.0
0.3566666841506958	0.0	0.0	0.0	0.0	0.0	0.0	0.0	0.0	0.0	44.23161697387695	99.2073974609375	-15.791742324829102	0.8535499256197077	0.0	-0.15872461524046666	0.0	2.591264725335224	0.0
0.35750001668930054	0.0	0.0	0.0	0.0	0.0	0.0	0.0	0.0	0.0	42.151092529296875	91.71420288085938	-14.796138763427734	0.8497650271069781	0.0	-0.16651625419228822	0.0	2.728542995348852	0.0
0.3583333492279053	0.0	0.0	0.0	0.0	0.0	0.0	0.0	0.0	0.0	40.187679290771484	84.13732147216797	-14.642996788024902	0.8445361864022702	0.0	-0.1750876858887177	0.0	3.1213568237050673	0.0
0.35916668176651	0.0	0.0	0.0	0.0	0.0	0.0	0.0	0.0	0.0	38.192138671875	76.47880554199219	-15.123420715332031	0.8364717223584575	0.0	-0.18671911449680145	0.0	3.5913462773870437	0.0
0.36000001430511475	0.0	0.0	0.0	0.0	0.0	0.0	0.0	0.0	0.0	35.893985748291016	69.69099426269531	-15.048625946044922	0.8264308625931154	0.0	-0.19994810163374693	0.0	3.7791999565606966	0.0
0.3608333468437195	0.0	0.0	0.0	0.0	0.0	0.0	0.0	0.0	0.0	33.662330627441406	63.52952575683594	-14.036877632141113	0.81812801674666	0.0	-0.21041357721367038	0.0	3.840552323057464	0.0
0.3616666793823242	0.0	0.0	0.0	0.0	0.0	0.0	0.0	0.0	0.0	32.35993576049805	57.3017578125	-13.746173858642578	0.8109516694074939	0.0	-0.22529081861521422	0.0	4.367580567098656	0.0
0.36250001192092896	0.0	0.0	0.0	0.0	0.0	0.0	0.0	0.0	0.0	31.13848114013672	51.48824691772461	-14.065608978271484	0.8006936912575142	0.0	-0.24299731317579382	0.0	4.994058585128485	0.0
0.3633333444595337	0.0	0.0	0.0	0.0	0.0	0.0	0.0	0.0	0.0	29.770816802978516	46.51109313964844	-14.144580841064453	0.7876308576693227	0.0	-0.2611201508524088	0.0	5.487104927093707	0.0
0.3641666769981384	0.0	0.0	0.0	0.0	0.0	0.0	0.0	0.0	0.0	28.452383041381836	41.91449737548828	-13.604508399963379	0.7717900876470369	0.0	-0.28091017777065536	0.0	5.938060815345412	0.0
0.36500000953674316	0.0	0.0	0.0	0.0	0.0	0.0	0.0	0.0	0.0	27.60260581970215	35.545352935791016	-13.750564575195312	0.7410380729823247	0.0	-0.3186773006216251	0.0	7.302563118555543	0.0
0.3658333420753479	0.0	0.0	0.0	0.0	0.0	0.0	0.0	0.0	0.0	0.0	0.0	0.0	0.0	0.0	0.0	0.0	0.0	0.0
0.366666704416275	0.0	0.0	0.0	0.0	0.0	0.0	0.0	0.0	0.0	0.0	0.0	0.0	0.0	0.0	0.0	0.0	0.0	0.0
0.36750003695487976	0.0	0.0	0.0	0.0	0.0	0.0	0.0	0.0	0.0	0.0	0.0	0.0	0.0	0.0	0.0	0.0	0.0	0.0
0.3683333694934845	0.0	0.0	0.0	0.0	0.0	0.0	0.0	0.0	0.0	0.0	0.0	0.0	0.0	0.0	0.0	0.0	0.0	0.0
0.36916670203208923	0.0	0.0	0.0	0.0	0.0	0.0	0.0	0.0	0.0	0.0	0.0	0.0	0.0	0.0	0.0	0.0	0.0	0.0
0.37000003457069397	0.0	0.0	0.0	0.0	0.0	0.0	0.0	0.0	0.0	0.0	0.0	0.0	0.0	0.0	0.0	0.0	0.0	0.0
0.3708333671092987	0.0	0.0	0.0	0.0	0.0	0.0	0.0	0.0	0.0	0.0	0.0	0.0	0.0	0.0	0.0	0.0	0.0	0.0
0.37166669964790344	0.0	0.0	0.0	0.0	0.0	0.0	0.0	0.0	0.0	0.0	0.0	0.0	0.0	0.0	0.0	0.0	0.0	0.0
0.3725000321865082	0.0	0.0	0.0	0.0	0.0	0.0	0.0	0.0	0.0	0.0	0.0	0.0	0.0	0.0	0.0	0.0	0.0	0.0
0.3733333647251129	0.0	0.0	0.0	0.0	0.0	0.0	0.0	0.0	0.0	0.0	0.0	0.0	0.0	0.0	0.0	0.0	0.0	0.0
0.37416669726371765	0.0	0.0	0.0	0.0	0.0	0.0	0.0	0.0	0.0	0.0	0.0	0.0	0.0	0.0	0.0	0.0	0.0	0.0
0.3750000298023224	0.0	0.0	0.0	0.0	0.0	0.0	0.0	0.0	0.0	0.0	0.0	0.0	0.0	0.0	0.0	0.0	0.0	0.0
0.3758333623409271	0.0	0.0	0.0	0.0	0.0	0.0	0.0	0.0	0.0	0.0	0.0	0.0	0.0	0.0	0.0	0.0	0.0	0.0
0.37666669487953186	0.0	0.0	0.0	0.0	0.0	0.0	0.0	0.0	0.0	0.0	0.0	0.0	0.0	0.0	0.0	0.0	0.0	0.0
0.3775000274181366	0.0	0.0	0.0	0.0	0.0	0.0	0.0	0.0	0.0	0.0	0.0	0.0	0.0	0.0	0.0	0.0	0.0	0.0
0.37833335995674133	0.0	0.0	0.0	0.0	0.0	0.0	0.0	0.0	0.0	0.0	0.0	0.0	0.0	0.0	0.0	0.0	0.0	0.0
0.37916669249534607	0.0	0.0	0.0	0.0	0.0	0.0	0.0	0.0	0.0	0.0	0.0	0.0	0.0	0.0	0.0	0.0	0.0	0.0
0.3800000250339508	0.0	0.0	0.0	0.0	0.0	0.0	0.0	0.0	0.0	0.0	0.0	0.0	0.0	0.0	0.0	0.0	0.0	0.0
0.38083335757255554	0.0	0.0	0.0	0.0	0.0	0.0	0.0	0.0	0.0	0.0	0.0	0.0	0.0	0.0	0.0	0.0	0.0	0.0
0.3816666901111603	0.0	0.0	0.0	0.0	0.0	0.0	0.0	0.0	0.0	0.0	0.0	0.0	0.0	0.0	0.0	0.0	0.0	0.0
0.382500022649765	0.0	0.0	0.0	0.0	0.0	0.0	0.0	0.0	0.0	0.0	0.0	0.0	0.0	0.0	0.0	0.0	0.0	0.0
0.38333335518836975	0.0	0.0	0.0	0.0	0.0	0.0	0.0	0.0	0.0	0.0	0.0	0.0	0.0	0.0	0.0	0.0	0.0	0.0
0.3841666877269745	0.0	0.0	0.0	0.0	0.0	0.0	0.0	0.0	0.0	0.0	0.0	0.0	0.0	0.0	0.0	0.0	0.0	0.0
0.3850000202655792	0.0	0.0	0.0	0.0	0.0	0.0	0.0	0.0	0.0	0.0	0.0	0.0	0.0	0.0	0.0	0.0	0.0	0.0
0.38583335280418396	0.0	0.0	0.0	0.0	0.0	0.0	0.0	0.0	0.0	0.0	0.0	0.0	0.0	0.0	0.0	0.0	0.0	0.0
0.3866666853427887	0.0	0.0	0.0	0.0	0.0	0.0	0.0	0.0	0.0	0.0	0.0	0.0	0.0	0.0	0.0	0.0	0.0	0.0
0.38750001788139343	0.0	0.0	0.0	0.0	0.0	0.0	0.0	0.0	0.0	0.0	0.0	0.0	0.0	0.0	0.0	0.0	0.0	0.0
0.38833335041999817	0.0	0.0	0.0	0.0	0.0	0.0	0.0	0.0	0.0	0.0	0.0	0.0	0.0	0.0	0.0	0.0	0.0	0.0
0.3891666829586029	0.0	0.0	0.0	0.0	0.0	0.0	0.0	0.0	0.0	0.0	0.0	0.0	0.0	0.0	0.0	0.0	0.0	0.0
0.39000001549720764	0.0	0.0	0.0	0.0	0.0	0.0	0.0	0.0	0.0	0.0	0.0	0.0	0.0	0.0	0.0	0.0	0.0	0.0
0.3908333480358124	0.0	0.0	0.0	0.0	0.0	0.0	0.0	0.0	0.0	0.0	0.0	0.0	0.0	0.0	0.0	0.0	0.0	0.0
0.3916666805744171	0.0	0.0	0.0	0.0	0.0	0.0	0.0	0.0	0.0	0.0	0.0	0.0	0.0	0.0	0.0	0.0	0.0	0.0
0.39250001311302185	0.0	0.0	0.0	0.0	0.0	0.0	0.0	0.0	0.0	0.0	0.0	0.0	0.0	0.0	0.0	0.0	0.0	0.0
0.3933333456516266	0.0	0.0	0.0	0.0	0.0	0.0	0.0	0.0	0.0	0.0	0.0	0.0	0.0	0.0	0.0	0.0	0.0	0.0
0.3941666781902313	0.0	0.0	0.0	0.0	0.0	0.0	0.0	0.0	0.0	0.0	0.0	0.0	0.0	0.0	0.0	0.0	0.0	0.0
0.39500001072883606	0.0	0.0	0.0	0.0	0.0	0.0	0.0	0.0	0.0	0.0	0.0	0.0	0.0	0.0	0.0	0.0	0.0	0.0
0.3958333432674408	0.0	0.0	0.0	0.0	0.0	0.0	0.0	0.0	0.0	0.0	0.0	0.0	0.0	0.0	0.0	0.0	0.0	0.0
0.3966667056083679	0.0	0.0	0.0	0.0	0.0	0.0	0.0	0.0	0.0	0.0	0.0	0.0	0.0	0.0	0.0	0.0	0.0	0.0
0.39750003814697266	0.0	0.0	0.0	0.0	0.0	0.0	0.0	0.0	0.0	0.0	0.0	0.0	0.0	0.0	0.0	0.0	0.0	0.0
0.3983333706855774	0.0	0.0	0.0	0.0	0.0	0.0	0.0	0.0	0.0	0.0	0.0	0.0	0.0	0.0	0.0	0.0	0.0	0.0
0.39916670322418213	0.0	0.0	0.0	0.0	0.0	0.0	0.0	0.0	0.0	0.0	0.0	0.0	0.0	0.0	0.0	0.0	0.0	0.0
0.40000003576278687	0.0	0.0	0.0	0.0	0.0	0.0	0.0	0.0	0.0	0.0	0.0	0.0	0.0	0.0	0.0	0.0	0.0	0.0
0.4008333683013916	0.0	0.0	0.0	0.0	0.0	0.0	0.0	0.0	0.0	0.0	0.0	0.0	0.0	0.0	0.0	0.0	0.0	0.0
0.40166670083999634	0.0	0.0	0.0	0.0	0.0	0.0	0.0	0.0	0.0	0.0	0.0	0.0	0.0	0.0	0.0	0.0	0.0	0.0
0.4025000333786011	0.0	0.0	0.0	0.0	0.0	0.0	0.0	0.0	0.0	0.0	0.0	0.0	0.0	0.0	0.0	0.0	0.0	0.0
0.4033333659172058	0.0	0.0	0.0	0.0	0.0	0.0	0.0	0.0	0.0	0.0	0.0	0.0	0.0	0.0	0.0	0.0	0.0	0.0
0.40416669845581055	0.0	0.0	0.0	0.0	0.0	0.0	0.0	0.0	0.0	0.0	0.0	0.0	0.0	0.0	0.0	0.0	0.0	0.0
0.4050000309944153	0.0	0.0	0.0	0.0	0.0	0.0	0.0	0.0	0.0	0.0	0.0	0.0	0.0	0.0	0.0	0.0	0.0	0.0
0.40583336353302	0.0	0.0	0.0	0.0	0.0	0.0	0.0	0.0	0.0	0.0	0.0	0.0	0.0	0.0	0.0	0.0	0.0	0.0
0.40666669607162476	0.0	0.0	0.0	0.0	0.0	0.0	0.0	0.0	0.0	0.0	0.0	0.0	0.0	0.0	0.0	0.0	0.0	0.0
0.4075000286102295	0.0	0.0	0.0	0.0	0.0	0.0	0.0	0.0	0.0	0.0	0.0	0.0	0.0	0.0	0.0	0.0	0.0	0.0
0.40833336114883423	0.0	0.0	0.0	0.0	0.0	0.0	0.0	0.0	0.0	0.0	0.0	0.0	0.0	0.0	0.0	0.0	0.0	0.0
